<svg width="100" height="100" viewBox="0 0 100 100" fill="none" xmlns="http://www.w3.org/2000/svg">
<path d="M39.5833 4.41183H5.26965V39.7059H39.5833V4.41183Z" fill="#92F183"/>
<path d="M39.5833 43.9077H5.26959C3.014 43.9077 1.18457 42.0265 1.18457 39.7059V4.41184C1.18457 2.09125 3.01373 0.210114 5.26959 0.210114H39.5833C41.8389 0.210114 43.6683 2.09125 43.6683 4.41184V39.7059C43.6683 42.0265 41.8389 43.9077 39.5833 43.9077ZM9.3546 35.5042H35.4983V8.61357H9.3546V35.5042V35.5042Z" fill="#194F82"/>
<path d="M94.7303 4.41183H60.4166V39.7059H94.7303V4.41183Z" fill="#FCFF76"/>
<path d="M94.7304 43.9077H60.4167C58.1611 43.9077 56.3317 42.0265 56.3317 39.7059V4.41184C56.3317 2.09125 58.1608 0.210114 60.4167 0.210114H94.7304C96.986 0.210114 98.8154 2.09125 98.8154 4.41184V39.7059C98.8154 42.0265 96.9862 43.9077 94.7304 43.9077ZM64.5017 35.5042H90.6454V8.61357H64.5017V35.5042V35.5042Z" fill="#194F82"/>
<path d="M39.5833 60.2941H5.26965V95.5882H39.5833V60.2941Z" fill="#FFAE64"/>
<path d="M39.5833 99.7899H5.26959C3.014 99.7899 1.18457 97.9088 1.18457 95.5882V60.2941C1.18457 57.9735 3.01373 56.0923 5.26959 56.0923H39.5833C41.8389 56.0923 43.6683 57.9735 43.6683 60.2941V95.5882C43.6683 97.9088 41.8389 99.7899 39.5833 99.7899ZM9.3546 91.3864H35.4983V64.4958H9.3546V91.3864V91.3864Z" fill="#194F82"/>
<path d="M94.7303 99.7899H60.4166C58.161 99.7899 56.3315 97.9088 56.3315 95.5882V60.2941C56.3315 57.9735 58.1607 56.0923 60.4166 56.0923H94.7303C96.9858 56.0923 98.8153 57.9735 98.8153 60.2941V77.9411C98.8153 80.2617 96.9861 82.1429 94.7303 82.1429C92.4744 82.1429 90.6452 80.2617 90.6452 77.9411V64.4958H64.5016V91.3864H94.7303C96.9858 91.3864 98.8153 93.2676 98.8153 95.5882C98.8153 97.9088 96.9861 99.7899 94.7303 99.7899Z" fill="#194F82"/>
</svg>
