<svg width="1440" height="976" viewBox="0 0 1440 976" fill="none" xmlns="http://www.w3.org/2000/svg">
<g clip-path="url(#clip0_12_489)">
<rect width="1440" height="976" fill="#E7E0EC"/>
<g opacity="0.54">
<path d="M474.328 1378.65C326.998 1252.48 392.387 987.356 576.16 965.754L606.544 962.182C662.651 955.587 713.826 922.948 747.866 872.048L766.301 844.484C877.796 677.767 1112.09 751.76 1131.18 959.716L1134.34 994.1C1140.17 1057.59 1169.01 1115.5 1213.99 1154.02L1238.35 1174.88C1385.68 1301.05 1320.29 1566.17 1136.52 1587.78L1106.13 1591.35C1050.03 1597.94 998.85 1630.58 964.81 1681.48L946.376 1709.05C834.881 1875.76 600.585 1801.77 581.495 1593.81L578.339 1559.43C572.51 1495.94 543.667 1438.03 498.687 1399.51L474.328 1378.65Z" fill="#FFFBFE"/>
<path d="M1023.17 736.018C1048.5 581.843 1227.6 542.48 1302.09 674.716L1314.41 696.579C1337.15 736.952 1373.68 764.838 1415.27 773.59L1437.8 778.33C1574.05 806.996 1608.83 1009.67 1491.97 1093.96L1472.65 1107.9C1436.97 1133.63 1412.33 1174.96 1404.6 1222.03L1400.41 1247.52C1375.08 1401.7 1195.97 1441.06 1121.48 1308.83L1109.17 1286.96C1086.42 1246.59 1049.9 1218.7 1008.3 1209.95L985.777 1205.21C849.532 1176.55 814.746 973.874 931.604 889.581L950.925 875.645C986.603 849.91 1011.25 808.579 1018.98 761.509L1023.17 736.018Z" fill="#F6EDFF"/>
<path d="M1095.02 580.294C1003.9 476.097 1072.67 299.487 1202.11 305.25L1223.51 306.203C1263.03 307.963 1301.42 291.091 1329.53 259.612L1344.76 242.564C1436.84 139.457 1592.91 217.268 1587.82 363.742L1586.97 387.96C1585.42 432.68 1600.33 476.125 1628.15 507.937L1643.21 525.165C1734.33 629.362 1665.57 805.972 1536.13 800.209L1514.72 799.256C1475.2 797.496 1436.81 814.368 1408.7 845.847L1393.47 862.895C1301.4 966.002 1145.32 888.191 1150.42 741.717L1151.26 717.499C1152.81 672.779 1137.9 629.334 1110.09 597.522L1095.02 580.294Z" fill="#EADDFF"/>
<path d="M956.17 -60.193C937.475 -219.449 1100.81 -322.284 1210.54 -220.342L1228.68 -203.487C1262.18 -172.364 1305.59 -158.362 1348.56 -164.821L1371.83 -168.318C1512.57 -189.473 1603.44 -4.64244 1513.36 119.527L1498.46 140.057C1470.96 177.966 1458.58 227.089 1464.29 275.711L1467.38 302.042C1486.08 461.298 1322.74 564.133 1213.01 462.191L1194.87 445.336C1161.37 414.213 1117.96 400.211 1074.99 406.669L1051.72 410.167C910.984 431.321 820.109 246.491 910.196 122.322L925.09 101.792C952.594 63.8824 964.968 14.7601 959.26 -33.8619L956.17 -60.193Z" fill="#D0BCFF"/>
<path d="M875.933 287.742C752.832 367.776 606.748 235.828 648.429 82.2524L655.32 56.8605C668.046 9.97295 663.011 -40.7873 641.418 -83.3165L629.724 -106.348C558.997 -245.649 675.601 -410.957 811.317 -363.791L833.756 -355.992C875.191 -341.592 920.048 -347.289 957.632 -371.724L977.985 -384.957C1101.09 -464.991 1247.17 -333.043 1205.49 -179.467L1198.6 -154.076C1185.87 -107.188 1190.91 -56.4277 1212.5 -13.8985L1224.19 9.13318C1294.92 148.434 1178.32 313.742 1042.6 266.576L1020.16 258.777C978.727 244.377 933.87 250.074 896.286 274.509L875.933 287.742Z" fill="#B69DF8"/>
<path d="M638.826 283.64C639.084 444.295 465.328 522.253 368.229 405.048L352.174 385.67C322.529 349.887 281.094 329.624 237.749 329.713L214.276 329.761C72.3032 330.052 3.41091 133.432 106.986 23.5539L124.111 5.38697C155.733 -28.1594 173.64 -75.0472 173.561 -124.096L173.518 -150.658C173.261 -311.314 347.016 -389.272 444.116 -272.067L460.171 -252.688C489.816 -216.905 531.251 -196.642 574.596 -196.731L598.069 -196.779C740.042 -197.07 808.934 -0.449684 705.359 109.428L688.234 127.595C656.612 161.141 638.705 208.029 638.784 257.078L638.826 283.64Z" fill="#9A82DB"/>
<path d="M437.982 423.288C526.589 548.813 433.53 732.247 293.057 708.958L269.832 705.107C226.944 697.997 183.372 711.339 149.505 741.951L131.165 758.529C20.2364 858.795 -141.866 753.49 -121.285 594.532L-117.882 568.25C-111.599 519.719 -123.389 470.413 -150.441 432.089L-165.091 411.335C-253.697 285.81 -160.638 102.376 -20.1654 125.665L3.06005 129.515C45.9473 136.626 89.5192 123.284 123.386 92.6722L141.727 76.0943C252.655 -24.1723 414.757 81.1328 394.177 240.091L390.774 266.373C384.49 314.904 396.28 364.21 423.332 402.533L437.982 423.288Z" fill="#7F67BE"/>
<path d="M393.012 652.451C522.433 718.497 513.465 929.765 379.046 981.469L356.822 990.018C315.783 1005.8 282.37 1040.15 264.551 1084.86L254.901 1109.07C196.536 1255.53 9.83639 1245.38 -35.8554 1093.27L-43.4099 1068.12C-57.3598 1021.68 -87.7098 983.872 -127.223 963.707L-148.621 952.788C-278.041 886.742 -269.073 675.474 -134.654 623.77L-112.43 615.221C-71.391 599.435 -37.9784 565.091 -20.1592 520.379L-10.5092 496.165C47.8559 349.713 234.555 359.861 280.247 511.969L287.802 537.118C301.751 583.558 332.101 621.367 371.614 641.531L393.012 652.451Z" fill="#6750A4"/>
<path d="M895.676 652.636C1025.1 718.682 1016.13 929.95 881.71 981.654L859.485 990.203C818.446 1005.99 785.034 1040.33 767.215 1085.05L757.565 1109.26C699.2 1255.71 512.5 1245.56 466.808 1093.45L459.254 1068.31C445.304 1021.87 414.954 984.057 375.441 963.893L354.043 952.973C224.622 886.927 233.59 675.659 368.009 623.955L390.234 615.406C431.273 599.621 464.685 565.277 482.505 520.564L492.155 496.35C550.52 349.898 737.219 360.047 782.911 512.154L790.465 537.304C804.415 583.743 834.765 621.552 874.278 641.717L895.676 652.636Z" fill="#FFFBFE"/>
<path d="M1057.68 330.981C1187.1 397.026 1178.13 608.294 1043.71 659.999L1021.49 668.547C980.446 684.333 947.034 718.677 929.215 763.39L919.565 787.604C861.2 934.055 674.5 923.907 628.808 771.799L621.254 746.65C607.304 700.211 576.954 662.401 537.441 642.237L516.043 631.317C386.622 565.272 395.59 354.004 530.009 302.299L552.234 293.751C593.273 277.965 626.685 243.621 644.505 198.909L654.155 174.695C712.52 28.2428 899.219 38.3911 944.911 190.499L952.465 215.648C966.415 262.087 996.765 299.897 1036.28 320.061L1057.68 330.981Z" fill="#F6EDFF"/>
<path d="M1344.57 440.146C1397.34 589.292 1261.41 734.467 1132.88 666.235L1111.63 654.954C1072.38 634.122 1027.26 632.645 987.024 650.876L965.233 660.749C833.431 720.462 705.139 566.64 765.436 421.194L775.406 397.147C793.815 352.741 795.119 301.684 779.009 256.148L770.284 231.489C717.515 82.3432 853.449 -62.8321 981.981 5.40023L1003.23 16.6816C1042.47 37.5134 1087.59 38.9898 1127.83 20.759L1149.62 10.8862C1281.43 -48.8269 1409.72 104.995 1349.42 250.441L1339.45 274.489C1321.04 318.894 1319.74 369.952 1335.85 415.487L1344.57 440.146Z" fill="#E8DEF8"/>
<path d="M808.274 796.762C670.884 756.275 648.34 546.308 773.165 469.77L793.803 457.115C831.913 433.748 859.749 393.537 870.672 346.071L876.588 320.366C912.367 164.896 1097.92 139.385 1165.55 280.637L1176.74 303.991C1197.39 347.116 1232.92 378.614 1274.87 390.975L1297.58 397.669C1434.97 438.156 1457.52 648.124 1332.69 724.662L1312.05 737.317C1273.94 760.684 1246.11 800.895 1235.19 848.361L1229.27 874.066C1193.49 1029.54 1007.94 1055.05 940.304 913.795L929.121 890.441C908.47 847.316 872.936 815.817 830.99 803.456L808.274 796.762Z" fill="#CCC2DC"/>
</g>
</g>
<defs>
<clipPath id="clip0_12_489">
<rect width="1440" height="976" fill="white"/>
</clipPath>
</defs>
</svg>
