<svg width="480" height="900" viewBox="0 0 480 900" fill="none" xmlns="http://www.w3.org/2000/svg">
<mask id="mask0_110_183" style="mask-type:alpha" maskUnits="userSpaceOnUse" x="0" y="0" width="480" height="900">
<path d="M0 0H480V900H0V0Z" fill="#D9D9D9"/>
</mask>
<g mask="url(#mask0_110_183)">
<g clip-path="url(#clip0_110_183)">
<rect width="1843.2" height="1120.13" transform="translate(-163 -16)" fill="#E7E0EC"/>
<g opacity="0.54">
<path d="M-591.354 233.866C-779.935 89.0672 -696.238 -215.213 -461.008 -240.005L-422.116 -244.104C-350.299 -251.674 -284.795 -289.132 -241.224 -347.549L-217.628 -379.184C-74.9143 -570.52 224.985 -485.601 249.42 -246.934L253.46 -207.473C260.92 -134.607 297.839 -68.1463 355.414 -23.9384L386.594 0.00224488C575.175 144.801 491.478 449.082 256.248 473.874L217.356 477.973C145.539 485.542 80.0354 523.001 36.464 581.417L12.8681 613.052C-129.846 804.389 -429.744 719.469 -454.18 480.802L-458.22 441.342C-465.68 368.475 -502.599 302.015 -560.174 257.807L-591.354 233.866Z" fill="#FFAFCC"/>
<path d="M650.009 570.241C650.338 754.62 427.931 844.091 303.643 709.578L283.094 687.338C245.148 646.27 192.111 623.015 136.629 623.117L106.584 623.172C-75.141 623.506 -163.323 397.85 -30.747 271.746L-8.82718 250.897C31.6491 212.396 54.5696 158.585 54.469 102.292L54.4145 71.8074C54.085 -112.572 276.492 -202.043 400.78 -67.5296L421.329 -45.2895C459.275 -4.22181 512.312 19.0335 567.794 18.9315L597.84 18.8762C779.564 18.5419 867.746 244.198 735.17 370.302L713.25 391.152C672.774 429.652 649.853 483.464 649.954 539.756L650.009 570.241Z" fill="#06D6A0"/>
<path d="M444.857 628.523C534.21 789.075 383.567 977.66 210.253 922.216L181.598 913.049C128.684 896.122 71.22 902.225 22.9084 929.904L-3.25466 944.893C-161.495 1035.55 -347.364 882.708 -292.719 706.862L-283.684 677.788C-267 624.101 -273.016 565.798 -300.296 516.78L-315.07 490.235C-404.423 329.683 -253.78 141.098 -80.4658 196.541L-51.8106 205.708C1.10328 222.636 58.5671 216.532 106.879 188.854L133.042 173.864C291.282 83.2054 477.152 236.049 422.506 411.896L413.471 440.97C396.788 494.657 402.803 552.96 430.083 601.977L444.857 628.523Z" fill="#E76F51"/>
<path d="M340.056 732.801C505.715 808.6 494.235 1051.07 322.179 1110.41L293.732 1120.22C241.202 1138.33 198.434 1177.75 175.625 1229.07L163.273 1256.86C88.566 1424.93 -150.409 1413.29 -208.895 1238.72L-218.564 1209.85C-236.42 1156.56 -275.268 1113.16 -325.845 1090.02L-353.234 1077.49C-518.893 1001.69 -507.414 759.224 -335.357 699.884L-306.91 690.073C-254.38 671.956 -211.612 632.541 -188.803 581.226L-176.452 553.436C-101.744 385.357 137.231 397.004 195.716 571.574L205.386 600.437C223.242 653.734 262.09 697.127 312.667 720.269L340.056 732.801Z" fill="#118AB2"/>
<path d="M959.576 758.663C1125.23 834.462 1113.76 1076.93 941.699 1136.27L913.252 1146.08C860.722 1164.2 817.954 1203.61 795.145 1254.93L782.793 1282.72C708.086 1450.8 469.111 1439.15 410.625 1264.58L400.956 1235.72C383.1 1182.42 344.252 1139.03 293.675 1115.88L266.286 1103.35C100.627 1027.55 112.106 785.086 284.163 725.746L312.61 715.935C365.14 697.818 407.908 658.403 430.717 607.087L443.068 579.298C517.776 411.219 756.751 422.866 815.236 597.436L824.906 626.299C842.762 679.596 881.61 722.989 932.187 746.131L959.576 758.663Z" fill="#06D6A0"/>
<path d="M983.896 191.131C1149.55 266.93 1138.08 509.396 966.019 568.736L937.572 578.547C885.042 596.664 842.274 636.08 819.465 687.395L807.113 715.185C732.406 883.264 493.431 871.617 434.945 697.047L425.276 668.184C407.42 614.886 368.572 571.493 317.995 548.352L290.606 535.819C124.947 460.02 136.426 217.554 308.482 158.214L336.93 148.403C389.46 130.286 432.228 90.8704 455.036 39.555L467.388 11.7652C542.096 -156.314 781.071 -144.667 839.556 29.9033L849.226 58.7663C867.082 112.064 905.93 155.457 956.506 178.598L983.896 191.131Z" fill="#EF476F"/>
<path d="M628.376 900.765C447.122 914.031 343.558 695.206 467.09 559.978L487.515 537.62C525.23 496.334 544.374 441.024 540.382 384.877L538.22 354.471C525.145 170.569 740.819 65.4915 874.1 190.828L896.136 211.551C936.827 249.818 991.341 269.241 1046.68 265.191L1076.65 262.998C1257.9 249.732 1361.47 468.557 1237.93 603.785L1217.51 626.143C1179.79 667.429 1160.65 722.739 1164.64 778.886L1166.8 809.292C1179.88 993.194 964.205 1098.27 830.924 972.935L808.888 952.212C768.196 913.946 713.682 894.522 658.344 898.572L628.376 900.765Z" fill="#BDE0FE"/>
</g>
</g>
</g>
<defs>
<clipPath id="clip0_110_183">
<rect width="1843.2" height="1120.13" fill="white" transform="translate(-163 -16)"/>
</clipPath>
</defs>
</svg>
