<svg width="1440" height="863" viewBox="0 0 1440 863" fill="none" xmlns="http://www.w3.org/2000/svg">
<g clip-path="url(#clip0_12_542)">
<rect width="1440" height="862.5" fill="#E7E0EC"/>
<g opacity="0.54">
<path d="M-334.652 192.397C-481.981 80.9017 -416.593 -153.394 -232.819 -172.484L-202.435 -175.64C-146.328 -181.469 -95.1528 -210.312 -61.1127 -255.292L-42.6783 -279.652C68.8167 -426.981 303.113 -361.593 322.203 -177.819L325.359 -147.435C331.187 -91.3275 360.03 -40.1527 405.011 -6.11263L429.37 12.3217C576.699 123.817 511.311 358.113 327.538 377.203L297.153 380.359C241.046 386.187 189.871 415.03 155.831 460.011L137.397 484.37C25.9017 631.699 -208.394 566.311 -227.484 382.538L-230.641 352.153C-236.469 296.046 -265.312 244.871 -310.292 210.831L-334.652 192.397Z" fill="#FFAFCC"/>
<path d="M1023.17 650.426C1048.5 514.18 1227.6 479.394 1302.09 596.252L1314.41 615.573C1337.15 651.251 1373.68 675.895 1415.27 683.629L1437.8 687.817C1574.05 713.149 1608.83 892.252 1491.97 966.742L1472.65 979.058C1436.97 1001.8 1412.33 1038.32 1404.6 1079.92L1400.41 1102.45C1375.08 1238.69 1195.97 1273.48 1121.48 1156.62L1109.17 1137.3C1086.42 1101.62 1049.9 1076.98 1008.3 1069.24L985.777 1065.06C849.532 1039.72 814.746 860.622 931.604 786.131L950.925 773.815C986.603 751.073 1011.25 714.549 1018.98 672.952L1023.17 650.426Z" fill="#118AB2"/>
<path d="M1095.02 512.811C1003.9 420.732 1072.67 264.659 1202.11 269.752L1223.51 270.594C1263.03 272.149 1301.42 257.24 1329.53 229.421L1344.76 214.356C1436.84 123.24 1592.91 192.001 1587.82 321.443L1586.97 342.844C1585.42 382.363 1600.33 420.756 1628.15 448.869L1643.21 464.093C1734.33 556.173 1665.57 712.245 1536.13 707.152L1514.72 706.31C1475.2 704.755 1436.81 719.664 1408.7 747.483L1393.47 762.548C1301.4 853.665 1145.32 784.903 1150.42 655.462L1151.26 634.06C1152.81 594.541 1137.9 556.148 1110.09 528.035L1095.02 512.811Z" fill="#E76F51"/>
<path d="M976.006 -6.44311C957.311 -147.179 1120.65 -238.055 1230.38 -147.968L1248.52 -133.074C1282.02 -105.57 1325.43 -93.1961 1368.4 -98.9036L1391.67 -101.994C1532.4 -120.689 1623.28 42.6474 1533.19 152.377L1518.3 170.519C1490.79 204.02 1478.42 247.43 1484.13 290.398L1487.22 313.667C1505.91 454.403 1342.58 545.279 1232.85 455.192L1214.7 440.298C1181.2 412.793 1137.79 400.42 1094.83 406.127L1071.56 409.218C930.821 427.913 839.945 264.576 930.032 154.847L944.926 136.705C972.43 103.203 984.804 59.7936 979.096 16.8259L976.006 -6.44311Z" fill="#EF476F"/>
<path d="M943.087 411.696C834.922 503.655 670.048 415.6 686.321 274.563L689.011 251.244C693.98 208.185 680.862 164.994 652.786 131.971L637.582 114.087C545.622 5.92174 633.678 -158.952 774.714 -142.679L798.033 -139.989C841.093 -135.021 884.283 -148.138 917.307 -176.214L935.191 -191.418C1043.36 -283.378 1208.23 -195.322 1191.96 -54.2855L1189.27 -30.9669C1184.3 12.0925 1197.42 55.2833 1225.49 88.3068L1240.7 106.191C1332.66 214.356 1244.6 379.229 1103.56 362.957L1080.24 360.266C1037.18 355.298 993.994 368.416 960.971 396.491L943.087 411.696Z" fill="#118AB2"/>
<path d="M635.163 451.405C635.42 593.378 461.665 662.27 364.565 558.695L348.51 541.57C318.865 509.948 277.43 492.041 234.085 492.12L210.612 492.162C68.6395 492.42 -0.252826 318.665 103.322 221.565L120.447 205.51C152.069 175.865 169.976 134.43 169.897 91.0851L169.855 67.6117C169.597 -74.3606 343.353 -143.253 440.453 -39.6778L456.507 -22.5529C486.152 9.06918 527.587 26.9758 570.932 26.8972L594.405 26.8546C736.378 26.5972 805.27 200.353 701.695 297.452L684.57 313.507C652.948 343.152 635.041 384.587 635.12 427.932L635.163 451.405Z" fill="#06D6A0"/>
<path d="M474.888 496.283C544.695 619.908 427.005 765.118 291.604 722.427L269.217 715.368C227.878 702.334 182.984 707.034 145.241 728.346L124.801 739.888C1.17597 809.695 -144.035 692.006 -101.343 556.604L-94.2845 534.217C-81.2504 492.878 -85.9501 447.984 -107.263 410.241L-118.804 389.801C-188.612 266.176 -70.922 120.965 64.4797 163.657L86.8667 170.716C128.206 183.75 173.099 179.05 210.843 157.737L231.283 146.196C354.908 76.3883 500.118 194.078 457.427 329.48L450.368 351.867C437.334 393.206 442.034 438.099 463.346 475.843L474.888 496.283Z" fill="#E76F51"/>
<path d="M393.012 576.577C522.433 634.942 513.465 821.642 379.046 867.333L356.822 874.888C315.783 888.838 282.37 919.188 264.551 958.701L254.901 980.099C196.536 1109.52 9.83646 1100.55 -35.8553 966.132L-43.4098 943.908C-57.3598 902.869 -87.7097 869.456 -127.223 851.637L-148.621 841.987C-278.041 783.622 -269.073 596.923 -134.654 551.231L-112.43 543.676C-71.391 529.727 -37.9783 499.377 -20.1591 459.864L-10.5092 438.466C47.8559 309.045 234.555 318.013 280.247 452.432L287.802 474.656C301.751 515.695 332.101 549.108 371.614 566.927L393.012 576.577Z" fill="#118AB2"/>
<path d="M877.012 596.491C1006.43 654.856 997.465 841.555 863.046 887.247L840.822 894.802C799.783 908.752 766.37 939.101 748.551 978.614L738.901 1000.01C680.536 1129.43 493.836 1120.47 448.145 986.046L440.59 963.822C426.64 922.783 396.29 889.37 356.777 871.551L335.379 861.901C205.959 803.536 214.927 616.836 349.346 571.145L371.57 563.59C412.609 549.64 446.022 519.29 463.841 479.777L473.491 458.379C531.856 328.959 718.555 337.927 764.247 472.346L771.802 494.57C785.751 535.609 816.101 569.022 855.614 586.841L877.012 596.491Z" fill="#06D6A0"/>
<path d="M896.012 159.491C1025.43 217.856 1016.47 404.555 882.046 450.247L859.822 457.801C818.783 471.751 785.37 502.101 767.551 541.614L757.901 563.012C699.536 692.433 512.836 683.465 467.145 549.046L459.59 526.821C445.64 485.783 415.29 452.37 375.777 434.551L354.379 424.901C224.959 366.536 233.927 179.836 368.346 134.145L390.57 126.59C431.609 112.64 465.022 82.2902 482.841 42.7773L492.491 21.3792C550.856 -108.042 737.555 -99.0734 783.247 35.3456L790.802 57.5701C804.751 98.609 835.101 132.022 874.614 149.841L896.012 159.491Z" fill="#EF476F"/>
<path d="M1254.71 428.197C1336.93 543.938 1234.89 700.544 1095.8 672.088L1072.81 667.383C1030.34 658.695 986.174 668.014 950.838 693.116L931.702 706.711C815.961 788.932 659.355 686.895 687.811 547.803L692.516 524.806C701.204 482.341 691.885 438.174 666.783 402.838L653.188 383.702C570.967 267.961 673.004 111.355 812.096 139.811L835.093 144.516C877.558 153.204 921.725 143.885 957.061 118.782L976.197 105.188C1091.94 22.9669 1248.54 125.004 1220.09 264.096L1215.38 287.093C1206.7 329.558 1216.01 373.725 1241.12 409.061L1254.71 428.197Z" fill="#FFD166"/>
<path d="M618.263 705.909C476.658 716.124 395.748 547.629 492.258 443.503L508.214 426.287C537.679 394.497 552.635 351.908 549.517 308.675L547.828 285.263C537.613 143.658 706.109 62.7483 810.234 159.258L827.45 175.214C859.24 204.679 901.829 219.636 945.062 216.517L968.474 214.828C1110.08 204.613 1190.99 373.109 1094.48 477.234L1078.52 494.45C1049.06 526.24 1034.1 568.829 1037.22 612.062L1038.91 635.475C1049.12 777.079 880.629 857.989 776.503 761.48L759.287 745.523C727.497 716.058 684.908 701.102 641.675 704.22L618.263 705.909Z" fill="#BDE0FE"/>
</g>
</g>
<defs>
<clipPath id="clip0_12_542">
<rect width="1440" height="862.5" fill="white"/>
</clipPath>
</defs>
</svg>
