<svg width="100" height="100" viewBox="0 0 100 100" fill="none" xmlns="http://www.w3.org/2000/svg">
<g clip-path="url(#clip0_58_107)">
<path d="M97.4248 72.9459C96.5027 72.0238 95.0208 71.859 93.9174 72.5837C86.2276 77.7047 77.2204 80.4051 67.917 80.4051C56.2919 80.4051 45.3086 76.2062 36.6805 68.5329L42.7235 62.4899C44.6008 60.3987 43.1023 57.8628 40.7475 57.7476H10.433C8.90168 57.7476 7.65027 58.9825 7.65027 60.5304V90.8285C7.78196 93.4467 10.7129 94.4511 12.3925 92.8046L18.6992 86.4979C28.3648 95.2251 40.764 100 53.8713 100C67.917 100 85.7831 94.1383 97.7213 76.4535C98.4951 75.3498 98.3469 73.8845 97.4248 72.9459ZM53.9208 94.4343C41.357 94.4343 29.5342 89.5272 20.6587 80.652C19.6213 79.6145 17.7606 79.6145 16.7232 80.652L13.2323 84.1428V63.2966H34.0623L30.736 66.6229C29.6657 67.792 29.5997 69.4222 30.736 70.5584C40.6815 80.5042 53.8876 85.9709 67.9333 85.9709C73.4988 85.9709 78.9823 85.0982 84.1856 83.4187C75.7056 90.5318 65.1177 94.4343 53.9208 94.4343Z" fill="#194F82"/>
<path d="M63.323 31.4507L57.28 37.4938C55.4027 39.585 56.9012 42.1209 59.256 42.2361H89.5705C91.1018 42.2361 92.3532 41.0012 92.3532 39.4533V9.15517C92.2216 6.53697 89.2906 5.53263 87.611 7.1791L81.3043 13.4858C71.6056 4.75881 59.2229 0 46.0993 0C32.0534 0 14.2204 5.86198 2.24937 23.5467C1.50841 24.6499 1.65666 26.099 2.61158 27.0541C3.53364 27.9762 5.01556 28.141 6.11898 27.4163C13.8088 22.2953 22.816 19.5949 32.1194 19.5949C43.7116 19.5786 54.7112 23.7772 63.323 31.4507ZM46.0828 5.54919C58.6465 5.54919 70.4693 10.4562 79.3448 19.3315C80.3822 20.3689 82.2429 20.3689 83.2804 19.3315L86.7712 15.8406V36.6706H65.9412L69.2675 33.3443C70.3379 32.1752 70.4038 30.545 69.2675 29.4087C59.322 19.4632 46.1159 13.9963 32.0702 13.9963C26.5045 13.9963 21.0212 14.8689 15.818 16.5485C24.2979 9.45165 34.8856 5.54919 46.0828 5.54919Z" fill="#194F82"/>
<path d="M86.771 15.8572L83.2802 19.348C82.2427 20.3855 80.382 20.3855 79.3446 19.348C70.4693 10.4728 58.6463 5.56574 46.0826 5.56574C34.8854 5.56574 24.2811 9.43535 15.8175 16.5816C21.0208 14.8855 26.4877 14.0294 32.0698 14.0294C46.1154 14.0294 59.3381 19.4963 69.2671 29.4418C70.4034 30.5615 70.3374 32.1917 69.2671 33.3774L65.9408 36.6871H86.7707L86.771 15.8572Z" fill="#FCFF76"/>
<path d="M20.6423 80.652C29.5175 89.5272 41.3406 94.4343 53.9043 94.4343C65.1015 94.4343 75.7057 90.5647 84.1694 83.4182C78.9661 85.1143 73.4992 85.9704 67.9171 85.9704C53.8714 85.9704 40.6488 80.5035 30.7198 70.5579C29.5835 69.4382 29.6495 67.8081 30.7198 66.6224L34.0461 63.2961H13.2324V84.126L16.7233 80.6352C17.7607 79.6148 19.6048 79.6148 20.6423 80.652Z" fill="#92F183"/>
</g>
<defs>
<clipPath id="clip0_58_107">
<rect width="100" height="100" fill="white"/>
</clipPath>
</defs>
</svg>
