<svg width="100" height="93" viewBox="0 0 100 93" fill="none" xmlns="http://www.w3.org/2000/svg">
<g clip-path="url(#clip0_14_309)">
<rect y="10" width="100" height="83" rx="15" fill="#8288CB"/>
<rect x="10" y="34" width="80" height="48" rx="8" fill="#D9D9D9"/>
<path d="M23.642 19.0909V30H22.321V19.0909H23.642ZM27.3774 25.0781V30H26.1203V21.8182H27.3348V23.0966H27.4413C27.6331 22.6811 27.9243 22.3473 28.3149 22.0952C28.7055 21.8395 29.2098 21.7116 29.8277 21.7116C30.3817 21.7116 30.8664 21.8253 31.2819 22.0526C31.6974 22.2763 32.0205 22.6172 32.2513 23.0753C32.4822 23.5298 32.5976 24.1051 32.5976 24.8011V30H31.3405V24.8864C31.3405 24.2436 31.1736 23.7429 30.8398 23.3842C30.5059 23.022 30.0479 22.8409 29.4655 22.8409C29.0642 22.8409 28.7055 22.9279 28.3895 23.1019C28.077 23.2759 27.8302 23.5298 27.6491 23.8636C27.468 24.1974 27.3774 24.6023 27.3774 25.0781ZM38.4529 21.8182V22.8835H34.2129V21.8182H38.4529ZM35.4487 19.858H36.7058V27.6562C36.7058 28.0114 36.7573 28.2777 36.8603 28.4553C36.9668 28.6293 37.1017 28.7464 37.2651 28.8068C37.432 28.8636 37.6078 28.892 37.7924 28.892C37.9309 28.892 38.0446 28.8849 38.1333 28.8707C38.2221 28.853 38.2931 28.8388 38.3464 28.8281L38.6021 29.9574C38.5169 29.9893 38.3979 30.0213 38.2452 30.0533C38.0925 30.0888 37.899 30.1065 37.6646 30.1065C37.3095 30.1065 36.9615 30.0302 36.6206 29.8775C36.2832 29.7248 36.0027 29.4922 35.7789 29.1797C35.5588 28.8672 35.4487 28.473 35.4487 27.9972V19.858ZM43.6864 30.1705C42.8981 30.1705 42.218 29.9964 41.6463 29.6484C41.0781 29.2969 40.6396 28.8068 40.3306 28.1783C40.0252 27.5462 39.8725 26.8111 39.8725 25.973C39.8725 25.1349 40.0252 24.3963 40.3306 23.7571C40.6396 23.1143 41.0692 22.6136 41.6197 22.255C42.1737 21.8928 42.82 21.7116 43.5586 21.7116C43.9847 21.7116 44.4055 21.7827 44.821 21.9247C45.2365 22.0668 45.6147 22.2976 45.9556 22.6172C46.2965 22.9332 46.5682 23.3523 46.7706 23.8743C46.973 24.3963 47.0742 25.0391 47.0742 25.8026V26.3352H40.7674V25.2486H45.7958C45.7958 24.7869 45.7035 24.375 45.5188 24.0128C45.3377 23.6506 45.0785 23.3647 44.7411 23.1552C44.4073 22.9457 44.0131 22.8409 43.5586 22.8409C43.0579 22.8409 42.6246 22.9652 42.2589 23.2138C41.8967 23.4588 41.6179 23.7784 41.4226 24.1726C41.2273 24.5668 41.1296 24.9893 41.1296 25.4403V26.1648C41.1296 26.7827 41.2362 27.3065 41.4492 27.7362C41.6658 28.1623 41.9659 28.4872 42.3494 28.7109C42.733 28.9311 43.1786 29.0412 43.6864 29.0412C44.0167 29.0412 44.315 28.995 44.5813 28.9027C44.8512 28.8068 45.0838 28.6648 45.2791 28.4766C45.4744 28.2848 45.6254 28.0469 45.7319 27.7628L46.9464 28.1037C46.8185 28.5156 46.6037 28.8778 46.3018 29.1903C46 29.4993 45.6271 29.7408 45.1832 29.9148C44.7393 30.0852 44.2404 30.1705 43.6864 30.1705ZM50.2436 25.0781V30H48.9865V21.8182H50.201V23.0966H50.3075C50.4993 22.6811 50.7905 22.3473 51.1811 22.0952C51.5717 21.8395 52.076 21.7116 52.6939 21.7116C53.2479 21.7116 53.7326 21.8253 54.1481 22.0526C54.5636 22.2763 54.8867 22.6172 55.1175 23.0753C55.3484 23.5298 55.4638 24.1051 55.4638 24.8011V30H54.2067V24.8864C54.2067 24.2436 54.0398 23.7429 53.706 23.3842C53.3722 23.022 52.9141 22.8409 52.3317 22.8409C51.9304 22.8409 51.5717 22.9279 51.2557 23.1019C50.9432 23.2759 50.6964 23.5298 50.5153 23.8636C50.3342 24.1974 50.2436 24.6023 50.2436 25.0781ZM61.3192 21.8182V22.8835H57.0791V21.8182H61.3192ZM58.3149 19.858H59.572V27.6562C59.572 28.0114 59.6235 28.2777 59.7265 28.4553C59.833 28.6293 59.968 28.7464 60.1313 28.8068C60.2982 28.8636 60.474 28.892 60.6586 28.892C60.7971 28.892 60.9108 28.8849 60.9996 28.8707C61.0883 28.853 61.1594 28.8388 61.2126 28.8281L61.4683 29.9574C61.3831 29.9893 61.2641 30.0213 61.1114 30.0533C60.9587 30.0888 60.7652 30.1065 60.5308 30.1065C60.1757 30.1065 59.8277 30.0302 59.4868 29.8775C59.1494 29.7248 58.8689 29.4922 58.6452 29.1797C58.425 28.8672 58.3149 28.473 58.3149 27.9972V19.858ZM66.4461 30.1705C65.7075 30.1705 65.0594 29.9947 64.5019 29.6431C63.9479 29.2915 63.5146 28.7997 63.2021 28.1676C62.8932 27.5355 62.7387 26.7969 62.7387 25.9517C62.7387 25.0994 62.8932 24.3555 63.2021 23.7198C63.5146 23.0842 63.9479 22.5906 64.5019 22.239C65.0594 21.8874 65.7075 21.7116 66.4461 21.7116C67.1847 21.7116 67.8311 21.8874 68.385 22.239C68.9426 22.5906 69.3758 23.0842 69.6847 23.7198C69.9972 24.3555 70.1535 25.0994 70.1535 25.9517C70.1535 26.7969 69.9972 27.5355 69.6847 28.1676C69.3758 28.7997 68.9426 29.2915 68.385 29.6431C67.8311 29.9947 67.1847 30.1705 66.4461 30.1705ZM66.4461 29.0412C67.0072 29.0412 67.4688 28.8974 67.8311 28.6097C68.1933 28.3221 68.4614 27.9439 68.6354 27.4751C68.8094 27.0064 68.8964 26.4986 68.8964 25.9517C68.8964 25.4048 68.8094 24.8952 68.6354 24.4229C68.4614 23.9506 68.1933 23.5689 67.8311 23.2777C67.4688 22.9865 67.0072 22.8409 66.4461 22.8409C65.885 22.8409 65.4234 22.9865 65.0612 23.2777C64.699 23.5689 64.4308 23.9506 64.2568 24.4229C64.0828 24.8952 63.9958 25.4048 63.9958 25.9517C63.9958 26.4986 64.0828 27.0064 64.2568 27.4751C64.4308 27.9439 64.699 28.3221 65.0612 28.6097C65.4234 28.8974 65.885 29.0412 66.4461 29.0412ZM77.8679 23.6506L76.7386 23.9702C76.6676 23.782 76.5629 23.5991 76.4244 23.4215C76.2894 23.2404 76.1048 23.0913 75.8704 22.9741C75.636 22.8569 75.3359 22.7983 74.9702 22.7983C74.4695 22.7983 74.0522 22.9137 73.7184 23.1445C73.3881 23.3718 73.223 23.6612 73.223 24.0128C73.223 24.3253 73.3366 24.5721 73.5639 24.7532C73.7912 24.9343 74.1463 25.0852 74.6293 25.206L75.8438 25.5043C76.5753 25.6818 77.1204 25.9535 77.479 26.3192C77.8377 26.6815 78.017 27.1484 78.017 27.7202C78.017 28.1889 77.8821 28.608 77.6122 28.9773C77.3459 29.3466 76.973 29.6378 76.4936 29.8509C76.0142 30.0639 75.4567 30.1705 74.821 30.1705C73.9865 30.1705 73.2958 29.9893 72.7489 29.6271C72.2021 29.2649 71.8558 28.7358 71.7102 28.0398L72.9034 27.7415C73.017 28.1818 73.2319 28.5121 73.5479 28.7322C73.8675 28.9524 74.2848 29.0625 74.7997 29.0625C75.3857 29.0625 75.8509 28.9382 76.1953 28.6896C76.5433 28.4375 76.7173 28.1357 76.7173 27.7841C76.7173 27.5 76.6179 27.2621 76.419 27.0703C76.2202 26.875 75.9148 26.7294 75.5028 26.6335L74.1392 26.3139C73.3899 26.1364 72.8395 25.8612 72.4879 25.4883C72.1399 25.1119 71.9659 24.6413 71.9659 24.0767C71.9659 23.6151 72.0955 23.2067 72.3548 22.8516C72.6175 22.4964 72.9744 22.2177 73.4254 22.0153C73.88 21.8129 74.3949 21.7116 74.9702 21.7116C75.7798 21.7116 76.4155 21.8892 76.8771 22.2443C77.3423 22.5994 77.6726 23.0682 77.8679 23.6506Z" fill="white"/>
<path d="M31 5C31 7.76142 28.7614 10 26 10C23.2386 10 21 7.76142 21 5C21 2.23858 23.2386 0 26 0C28.7614 0 31 2.23858 31 5Z" fill="#8288CB"/>
<path d="M31 5C31 7.76142 28.7614 10 26 10H31V5Z" fill="#8288CB"/>
<path d="M26 10C23.2386 10 21 7.76142 21 5V10H26Z" fill="#8288CB"/>
<path d="M79 5C79 7.76142 76.7614 10 74 10C71.2386 10 69 7.76142 69 5C69 2.23858 71.2386 0 74 0C76.7614 0 79 2.23858 79 5Z" fill="#8288CB"/>
<path d="M79 5C79 7.76142 76.7614 10 74 10H79V5Z" fill="#8288CB"/>
<path d="M74 10C71.2386 10 69 7.76142 69 5V10H74Z" fill="#8288CB"/>
</g>
<defs>
<clipPath id="clip0_14_309">
<rect width="100" height="93" fill="white"/>
</clipPath>
</defs>
</svg>
